<svg xmlns="http://www.w3.org/2000/svg" xmlns:xlink="http://www.w3.org/1999/xlink" version="1.1" width="1000" height="1000" viewBox="0 0 1000 1000" xml:space="preserve">
<desc>Created with Fabric.js 3.5.0</desc>
<defs>
</defs>
<rect x="0" y="0" width="100%" height="100%" fill="#ffffff"/>
<g transform="matrix(56.8159 0 0 56.8159 499.4996 499.4996)" id="779720">
<path style="stroke: none; stroke-width: 0; stroke-dasharray: none; stroke-linecap: butt; stroke-dashoffset: 0; stroke-linejoin: miter; stroke-miterlimit: 4; is-custom-font: none; font-file-url: none; fill: rgb(255,255,255); fill-rule: nonzero; opacity: 1;" vector-effect="non-scaling-stroke" transform=" translate(-7.1925, -8.0003)" d="M 14.383 10.388 a 2.397 2.397 0 0 0 -1.518 -2.222 l 1.494 -5.593 a 0.8 0.8 0 0 0 -0.144 -0.695 a 0.8 0.8 0 0 0 -0.631 -0.28 H 2.637 L 2.373 0.591 A 0.8 0.8 0 0 0 1.598 0 H 0 v 1.598 h 0.983 l 1.982 7.4 a 0.8 0.8 0 0 0 0.799 0.59 h 8.222 a 0.8 0.8 0 0 1 0 1.599 H 1.598 a 0.8 0.8 0 1 0 0 1.598 h 0.943 a 2.397 2.397 0 1 0 4.507 0 h 1.885 a 2.397 2.397 0 1 0 4.331 -0.376 a 2.397 2.397 0 0 0 1.12 -2.021 Z M 11.26 7.99 H 4.395 L 3.068 3.196 h 9.477 L 11.26 7.991 Z m -6.465 6.392 a 0.8 0.8 0 1 1 0 -1.598 a 0.8 0.8 0 0 1 0 1.598 Z m 6.393 0 a 0.8 0.8 0 1 1 0 -1.598 a 0.8 0.8 0 0 1 0 1.598 Z" stroke-linecap="round"/>
</g>
<g transform="matrix(1 0 0 1 500 500)" id="519579">
<g style="" vector-effect="non-scaling-stroke">
		<g transform="matrix(1 0 0 1 0 0)">
<rect style="stroke: none; stroke-width: 1; stroke-dasharray: none; stroke-linecap: butt; stroke-dashoffset: 0; stroke-linejoin: miter; stroke-miterlimit: 4; is-custom-font: none; font-file-url: none; fill: none; fill-rule: nonzero; opacity: 1;" x="-128" y="-128" rx="0" ry="0" width="256" height="256"/>
</g>
		<g transform="matrix(1 0 0 1 -28 -24)">
<path style="stroke: rgb(0,0,0); stroke-width: 8; stroke-dasharray: none; stroke-linecap: round; stroke-dashoffset: 0; stroke-linejoin: round; stroke-miterlimit: 4; is-custom-font: none; font-file-url: none; fill: none; fill-rule: nonzero; opacity: 1;" transform=" translate(-100, -104)" d="M 184 184 H 69.8 L 41.9 30.6 A 8 8 0 0 0 34.1 24 H 16" stroke-linecap="round"/>
</g>
		<g transform="matrix(1 0 0 1 -48 76)">
<circle style="stroke: rgb(0,0,0); stroke-width: 8; stroke-dasharray: none; stroke-linecap: round; stroke-dashoffset: 0; stroke-linejoin: round; stroke-miterlimit: 4; is-custom-font: none; font-file-url: none; fill: none; fill-rule: nonzero; opacity: 1;" cx="0" cy="0" r="20"/>
</g>
		<g transform="matrix(1 0 0 1 56 76)">
<circle style="stroke: rgb(0,0,0); stroke-width: 8; stroke-dasharray: none; stroke-linecap: round; stroke-dashoffset: 0; stroke-linejoin: round; stroke-miterlimit: 4; is-custom-font: none; font-file-url: none; fill: none; fill-rule: nonzero; opacity: 1;" cx="0" cy="0" r="20"/>
</g>
		<g transform="matrix(1 0 0 1 4 -24)">
<path style="stroke: rgb(0,0,0); stroke-width: 8; stroke-dasharray: none; stroke-linecap: round; stroke-dashoffset: 0; stroke-linejoin: round; stroke-miterlimit: 4; is-custom-font: none; font-file-url: none; fill: none; fill-rule: nonzero; opacity: 1;" transform=" translate(-132, -104)" d="M 62.5 144 H 188.1 a 15.9 15.9 0 0 0 15.7 -13.1 L 216 64 H 48" stroke-linecap="round"/>
</g>
</g>
</g>
</svg>